<?xml version="1.0" encoding="UTF-8"?>
<svg id="Layer_1" data-name="Layer 1" xmlns="http://www.w3.org/2000/svg" viewBox="0 0 390 814">
  <path d="M308.18,610.47H79.43c-1.36,0-2.61-.74-3.29-1.93l-114.37-200.62c-.68-1.2-.68-2.67,0-3.87l114.37-200.62c.68-1.19,1.93-1.93,3.29-1.93h228.75c1.36,0,2.61.74,3.29,1.93l114.37,200.62c.69,1.2.69,2.67,0,3.87l-114.37,200.62c-.68,1.19-1.93,1.93-3.29,1.93ZM81.63,602.74h224.35l112.17-196.76-112.17-196.76H81.63L-30.55,405.98l112.17,196.76Z" style="fill: #000; stroke: #000; stroke-miterlimit: 10; stroke-width: .31px;"/>
  <path d="M240.64,677.33c-.4,0-.8-.07-1.19-.21L-12.6,584.05c-1.17-.43-2.02-1.46-2.24-2.71l-46.72-267.59c-.22-1.25.24-2.51,1.19-3.33l205.33-174.52c.96-.81,2.26-1.04,3.43-.61l252.04,93.07c1.17.43,2.03,1.47,2.24,2.71l46.72,267.59c.22,1.24-.24,2.51-1.19,3.33l-205.33,174.52c-.64.54-1.43.83-2.24.83ZM-8.33,578.1l248.26,91.67,202.24-171.89-46.01-263.57-248.26-91.67L-54.34,314.53-8.33,578.1Z" style="fill: #000; stroke: #000; stroke-miterlimit: 10; stroke-width: .31px;"/>
  <path d="M140.04,721.38c-.73,0-1.46-.26-2.03-.75l-238.95-203.42c-.87-.74-1.28-1.89-1.09-3.02L-48.18,202.91c.2-1.13.97-2.07,2.04-2.46L246.67,92.58c1.05-.39,2.25-.18,3.11.56l238.96,203.42c.86.74,1.28,1.89,1.08,3.02l-53.86,311.29c-.2,1.13-.97,2.07-2.04,2.46l-292.81,107.86c-.35.13-.72.19-1.08.19ZM-95.48,513.48l236.16,201.04,289.38-106.6,53.23-307.63L247.12,99.25-42.26,205.84l-53.22,307.63Z" style="fill: #000; stroke: #000; stroke-miterlimit: 10; stroke-width: .31px;"/>
  <path d="M374.92,728.22h0l-361.57-.28c-1.02,0-1.97-.55-2.48-1.45l-181.03-318.11c-.51-.9-.51-2.01,0-2.91L10.38,87.65c.51-.9,1.46-1.46,2.48-1.46h0l361.57.28c1.02,0,1.97.56,2.48,1.46l181.03,318.11c.51.9.51,2.01,0,2.91l-180.54,317.82c-.51.9-1.46,1.46-2.48,1.46ZM15.01,722.12l358.26.28,178.89-314.91L372.78,92.29l-358.26-.28-178.89,314.91L15.01,722.12Z" style="fill: #000; stroke: #000; stroke-miterlimit: 10; stroke-width: .31px;"/>
  <path d="M266.29,826.43c-.3,0-.6-.05-.88-.16l-391.11-144.77c-.86-.32-1.5-1.08-1.65-2l-72.39-416.52c-.16-.92.17-1.86.88-2.46L119.85-11.22c.71-.6,1.68-.77,2.54-.45l391.11,144.77c.86.32,1.5,1.08,1.65,2l72.39,416.52c.16.92-.17,1.86-.88,2.46l-318.72,271.75c-.47.4-1.06.61-1.66.61ZM-122.54,677.11l388.31,143.73,316.44-269.81-71.87-413.55L122.02-6.25-194.42,263.56l71.87,413.55Z" style="fill: #000; stroke: #000; stroke-miterlimit: 10; stroke-width: .31px;"/>
  <path d="M195,872.76c-.43,0-.86-.11-1.25-.34l-394.72-231.62c-.77-.45-1.25-1.29-1.25-2.19V175.38c0-.9.48-1.74,1.25-2.19L193.75-58.43c.78-.45,1.73-.45,2.5,0l394.72,231.62c.77.45,1.25,1.29,1.25,2.19v463.23c0,.9-.48,1.74-1.25,2.19l-394.72,231.62c-.39.23-.82.34-1.25.34ZM-197.22,637.16l392.22,230.15,392.22-230.15V176.84L195-53.31-197.22,176.84v460.31Z" style="fill: #000; stroke: #000; stroke-miterlimit: 10; stroke-width: .31px;"/>
</svg>