<?xml version="1.0" encoding="UTF-8"?>
<svg id="Layer_1" data-name="Layer 1" xmlns="http://www.w3.org/2000/svg" viewBox="0 0 1920 1086">
  <path d="M2077.72-119.11L965.43-771.79c-3.34-1.95-7.5-1.95-10.86,0L-157.72-119.11c-3.31,1.94-5.37,5.56-5.37,9.43v1305.35c0,3.87,2.06,7.48,5.37,9.43l1112.3,652.68c1.65.96,3.53,1.47,5.43,1.47s3.77-.51,5.43-1.48l1112.28-652.68c3.31-1.95,5.37-5.56,5.37-9.43V-109.68c0-3.87-2.06-7.48-5.37-9.43ZM2061.48,901.61l-194.5-1119.15,194.5,114.13v1005.02ZM-141.48,221.89L45.76,1299.27l-187.24-109.87V221.89ZM1270.54-10.54l313.94,550.68-313.94,550.68h-627.82l-313.94-550.68L642.71-10.54h627.82ZM1273,1120.12l-187.12,159.05-430.72-159.05h617.85ZM1295.81-24.92l227.71,84.08,79.36,454.55L1295.81-24.92ZM642.4-39.86l185.64-157.78,427.31,157.78h-612.95ZM610.49-12.74l-306.84,538.24-42.18-241.59L610.49-12.74ZM618.16,1106.47l-227.78-84.11-79.38-454.67,307.16,538.78ZM1300.74,1096.54l309.2-542.38,42.5,243.45-351.7,298.93ZM840.78-222.19l265.31-97.73L1512.06,25.68l-671.28-247.87ZM245.94,261.2L294.77-21.06l499.93-184.16L245.94,261.2ZM237.95,307.36l125.68,719.88-218.11-185.68,92.42-534.2ZM1078.21,1305.6l-270.54,99.66-413.97-352.42,684.51,252.76ZM1668.58,819.81l-49.58,286.57-507.58,186.98,557.16-473.55ZM1551.08,58.9l217.17,184.87-92.03,531.89-125.14-716.76ZM1793.32,247.81l168.77,296.57-316.48,557.13,147.71-853.7ZM1121.53-340.32l337.26.26,316.61,556.37-653.87-556.64ZM285.54-44.95l168.08-295.89,633.81.5L285.54-44.95ZM267.69-13.53L120.21,838.92-48.32,542.77,267.69-13.53ZM794.39,1427.48l-339.4-.27L136.35,867.29l658.03,560.18ZM1629.55,1129.79l-169.4,298.21-638.77-.5,808.17-297.71ZM1979.9,561.15l67.13,386.24-555.68,473.8,488.55-860.03ZM1481.4-348.36l363.83,134.67,126.28,726.56-490.11-861.23ZM459.09-364.78l296.03-252.41,683.99,253.17-980.02-.77ZM421.86-333.05L-66.19,526.12l-67.06-385.85L421.86-333.05ZM432.73,1436.15l-364.19-134.81L-57.86,574.06l490.59,862.09ZM1455.28,1451.94l-296.62,252.91-685.35-253.68,981.98.77ZM767.04-636.52l192.96-113.23,852.33,500.13-1045.28-386.91ZM-141.48,118.1V-103.41l833.22-488.92L-141.48,118.1ZM1148.8,1724.94l-188.8,110.79L126.03,1346.37l1022.78,378.58ZM2061.48,964.25v225.15l-846.91,496.96,846.91-722.11Z" style="fill: #000; stroke-width: 0px;"/>
  <g>
    <g>
      <path d="M568.44,538.42c.62-11.31,1.13-23.43,1.55-36.35.41-12.92.72-26.26.93-40.01.21-13.75.31-27.7.31-41.84s-.1-28.09-.31-41.84c-.21-13.75-.52-27.09-.93-40.01-.41-12.92-.93-25.04-1.55-36.35h18.87c5.26,8.3,10.93,17.06,17.01,26.27,6.08,9.21,12.46,18.72,19.14,28.53,6.68,9.81,13.59,19.83,20.73,30.05,7.14,10.22,14.4,20.49,21.77,30.79,7.37,10.3,14.81,20.59,22.32,30.87,7.5,10.28,14.94,20.34,22.31,30.2,7.32-9.86,14.71-19.93,22.16-30.2,7.45-10.28,14.86-20.56,22.24-30.87,7.37-10.3,14.67-20.56,21.89-30.79,7.22-10.22,14.22-20.24,21-30.05,6.78-9.81,13.29-19.32,19.53-28.53,6.24-9.21,12.12-17.97,17.63-26.27h17.79c-.93,11.31-1.7,23.43-2.32,36.35-.62,12.92-1.08,26.26-1.39,40.01-.31,13.75-.46,27.7-.46,41.84s.15,28.09.46,41.84c.31,13.75.77,27.09,1.39,40.01.62,12.92,1.39,25.04,2.32,36.35h-34.88c.72-8.72,1.31-17.96,1.78-27.71.46-9.76.84-19.82,1.12-30.2.28-10.38.46-20.97.54-31.76.08-10.79.06-21.64-.04-32.54l-.08-61.96c-8.3,11.21-16.72,22.7-25.25,34.49-8.53,11.78-17.04,23.6-25.52,35.46-8.48,11.86-16.82,23.63-25.02,35.3-8.2,11.68-16.09,23.02-23.67,34.02l-18.72,27.48c-17.89-26.88-36.19-53.44-54.88-79.68-18.69-26.23-37.63-52.25-56.81-78.04v47.41c-.05,11.31-.03,22.63.08,33.94.1,11.31.27,22.39.5,33.24.23,10.85.53,21.37.89,31.57.36,10.2.8,19.86,1.32,29h-25.75Z" style="fill: #000; stroke: #000; stroke-miterlimit: 10; stroke-width: .94px;"/>
      <path d="M936.91,538.42c.93-11.31,1.65-23.43,2.17-36.35.51-12.92.88-26.26,1.08-40.01.21-13.75.26-27.7.15-41.84-.1-14.14-.31-28.09-.62-41.84-.31-13.75-.71-27.09-1.2-40.01-.49-12.92-1.02-25.04-1.59-36.35h34.88c-.93,11.31-1.7,23.43-2.32,36.35-.62,12.92-1.08,26.26-1.39,40.01-.31,13.75-.46,27.7-.46,41.84s.15,28.09.46,41.84c.31,13.75.77,27.09,1.39,40.01.62,12.92,1.39,25.04,2.32,36.35h-34.88Z" style="fill: #000; stroke: #000; stroke-miterlimit: 10; stroke-width: .94px;"/>
      <path d="M1111.55,435.75l85.7-147.13c11.39,21.23,22.74,42.4,34.03,63.52,11.29,21.12,22.76,42.14,34.42,63.05,11.65,20.92,23.56,41.66,35.73,62.24,12.17,20.58,24.83,40.91,37.98,60.99h-36.82c-4.75-9.81-10.25-20.67-16.51-32.58-6.27-11.91-13.16-24.69-20.69-38.34h-152.14c-7.37,12.87-14.37,25.26-21,37.17-6.62,11.91-12.75,23.16-18.37,33.75h-25.75c4.8-7.42,9.77-15.2,14.93-23.35,5.15-8.15,10.41-16.57,15.78-25.26,5.36-8.69,10.79-17.58,16.28-26.66,5.49-9.08,10.97-18.22,16.43-27.4ZM1256.65,451.86l-63.96-119.34-70.38,119.34h134.35Z" style="fill: #000; stroke: #000; stroke-miterlimit: 10; stroke-width: .94px;"/>
    </g>
    <g>
      <path d="M651.83,636.76c4.73,0,9.12.71,13.18,2.13,4.06,1.42,7.77,3.43,11.14,6.04,3.37,2.61,6.36,5.75,8.97,9.43,2.6,3.68,4.82,7.77,6.63,12.27,1.81,4.5,3.2,9.36,4.17,14.58.97,5.22,1.49,10.68,1.57,16.39.08,5.57-.32,10.98-1.21,16.22-.89,5.25-2.2,10.18-3.95,14.8-1.75,4.62-3.93,8.86-6.55,12.72-2.62,3.85-5.63,7.16-9.03,9.92-3.4,2.76-7.19,4.9-11.36,6.43-4.18,1.53-8.7,2.29-13.56,2.29h-79.27c.22-4.03.41-8.27.59-12.72.17-4.45.32-9.04.44-13.77.12-4.73.22-9.56.28-14.5.07-4.93.11-9.9.14-14.91.03-5.98.01-11.94-.04-17.89-.05-5.95-.14-11.79-.26-17.52-.12-5.73-.28-11.29-.46-16.67-.19-5.38-.42-10.48-.69-15.29l62.75.04h16.52ZM651.51,751.46c3.98,0,7.5-.71,10.58-2.13,3.07-1.42,5.78-3.37,8.1-5.86,2.32-2.49,4.29-5.43,5.88-8.84,1.6-3.41,2.89-7.1,3.89-11.07.99-3.97,1.71-8.15,2.16-12.53.44-4.38.65-8.8.62-13.26,0-4.38-.23-8.72-.69-13.02-.46-4.3-1.18-8.4-2.18-12.29-.99-3.89-2.29-7.5-3.89-10.83-1.6-3.33-3.56-6.2-5.88-8.62-2.32-2.42-5.03-4.32-8.1-5.7-3.08-1.38-6.59-2.07-10.54-2.07h-16.08l-46.99-.04-.04,106.26h63.15Z" style="fill: #000; stroke: #000; stroke-miterlimit: 10; stroke-width: .94px;"/>
      <path d="M834.82,636.8v20.36c-3.04-2.76-6.29-4.93-9.75-6.51-3.47-1.58-7.05-2.77-10.76-3.57-3.71-.8-7.49-1.3-11.34-1.5-3.85-.2-7.68-.3-11.46-.3-1.45,0-2.89,0-4.33.02-1.44.01-2.87.02-4.29.02l-34.86-.04h-10.28v44.01h48.96c5.13,0,9.6-.21,13.42-.63,3.82-.42,7.07-1.1,9.77-2.03,2.7-.93,4.89-2.16,6.57-3.67,1.68-1.51,2.96-3.35,3.85-5.52v32.2c-.83-1.95-2.09-3.66-3.77-5.15-1.68-1.49-3.88-2.72-6.59-3.71-2.71-.99-5.99-1.73-9.81-2.23-3.83-.5-8.31-.75-13.44-.75h-48.96v53.7l43.68-.04c7.47-.03,14.33-.26,20.59-.69,6.26-.43,11.89-1.12,16.89-2.05,5-.93,9.35-2.14,13.06-3.63,3.71-1.49,6.74-3.3,9.11-5.43l-4.84,20.36h-33.15c-5.06,0-9.99,0-14.79-.02-4.8-.01-9.6-.02-14.41-.02h-51.98c.32-5.89.59-12.21.81-18.94.22-6.73.38-13.68.48-20.85s.16-14.43.16-21.8-.05-14.63-.16-21.8c-.11-7.16-.27-14.11-.48-20.85-.21-6.73-.48-13.05-.81-18.94h112.91Z" style="fill: #000; stroke: #000; stroke-miterlimit: 10; stroke-width: .94px;"/>
      <path d="M862.47,667.91c-.11-3,.3-5.99,1.23-8.96.93-2.97,2.36-5.83,4.31-8.56,1.95-2.73,4.39-5.29,7.31-7.69,2.93-2.39,6.33-4.5,10.22-6.33,3.88-1.83,8.21-3.31,13-4.46,4.78-1.15,10.01-1.86,15.68-2.13,1.75-.08,3.45-.12,5.12-.12,5.86,0,11.47.45,16.83,1.36,5.36.91,10.43,2.18,15.21,3.81,4.78,1.64,9.26,3.61,13.44,5.92,4.18,2.31,8,4.89,11.46,7.73l-.08,21.54c-4.14-5.54-8.4-10.34-12.79-14.4-4.39-4.06-8.96-7.4-13.7-10.04-4.74-2.64-9.69-4.6-14.83-5.88-5.15-1.28-10.52-1.93-16.14-1.93-1.32,0-2.66.04-4.03.12-3.92.19-7.6.66-11.02,1.4-3.42.74-6.55,1.69-9.37,2.84-2.82,1.15-5.33,2.47-7.53,3.97-2.2,1.5-4.06,3.12-5.56,4.85-1.51,1.73-2.63,3.54-3.38,5.43-.75,1.89-1.1,3.8-1.05,5.72.08,2.84.7,5.41,1.85,7.73,1.16,2.31,2.71,4.38,4.67,6.21,1.96,1.82,4.28,3.41,6.95,4.77,2.67,1.35,5.58,2.47,8.72,3.35,3.14.88,6.46,1.54,9.95,1.97,3.49.43,7.04.65,10.64.65h1.33c.43,0,.87-.01,1.33-.04.56-.03,1.13-.04,1.71-.04h1.71c4.51,0,9,.27,13.48.81,4.47.54,8.77,1.41,12.89,2.6,4.12,1.19,7.97,2.72,11.55,4.6,3.57,1.88,6.7,4.15,9.39,6.81,2.69,2.66,4.85,5.75,6.49,9.27,1.64,3.52,2.58,7.49,2.82,11.92.16,3.11-.21,6.22-1.11,9.33-.9,3.11-2.32,6.09-4.25,8.94-1.93,2.85-4.37,5.53-7.29,8.03-2.93,2.5-6.34,4.7-10.22,6.61-3.88,1.91-8.23,3.46-13.06,4.66-4.82,1.2-10.08,1.93-15.78,2.17-1.69.08-3.41.12-5.16.12-4.06,0-8.13-.2-12.21-.59-4.08-.39-8.11-.97-12.07-1.72-3.96-.76-7.82-1.68-11.59-2.78-3.76-1.1-7.33-2.33-10.72-3.71-3.38-1.38-6.55-2.89-9.49-4.54-2.94-1.65-5.57-3.42-7.88-5.31l.08-21.54c4.14,5.52,8.73,10.29,13.78,14.32,5.05,4.03,10.36,7.36,15.94,9.98,5.57,2.62,11.3,4.57,17.17,5.84,5.87,1.27,11.71,1.91,17.51,1.91,1.42,0,2.82-.04,4.19-.12,3.92-.22,7.59-.71,11-1.48,3.41-.77,6.53-1.76,9.35-2.96,2.82-1.2,5.33-2.6,7.54-4.18,2.2-1.58,4.05-3.29,5.54-5.11,1.49-1.83,2.61-3.74,3.37-5.74.75-2,1.09-4.02,1.01-6.04-.11-3.14-.76-5.95-1.95-8.44-1.2-2.49-2.82-4.69-4.88-6.61-2.06-1.92-4.49-3.57-7.29-4.95-2.81-1.38-5.88-2.51-9.23-3.39-3.35-.88-6.92-1.52-10.72-1.93-3.8-.41-7.7-.61-11.71-.61-3.33,0-6.73-.13-10.19-.41-3.47-.27-6.89-.7-10.28-1.28-3.38-.58-6.68-1.34-9.89-2.27-3.21-.93-6.25-2.07-9.11-3.41-2.86-1.34-5.49-2.9-7.9-4.68-2.4-1.79-4.5-3.81-6.29-6.08-1.79-2.27-3.2-4.8-4.25-7.58-1.05-2.78-1.64-5.87-1.77-9.25Z" style="fill: #000; stroke: #000; stroke-miterlimit: 10; stroke-width: .94px;"/>
      <path d="M1006.73,759.98c.48-5.89.86-12.21,1.13-18.94.27-6.73.46-13.68.57-20.85.11-7.17.13-14.43.08-21.8-.05-7.37-.16-14.63-.32-21.8-.16-7.16-.37-14.11-.62-20.85-.25-6.73-.53-13.05-.83-18.94h18.17c-.48,5.9-.89,12.21-1.21,18.94s-.56,13.68-.73,20.85c-.16,7.17-.24,14.43-.24,21.8s.08,14.63.24,21.8c.16,7.17.4,14.11.73,20.85.32,6.73.73,13.05,1.21,18.94h-18.17Z" style="fill: #000; stroke: #000; stroke-miterlimit: 10; stroke-width: .94px;"/>
      <path d="M1049.33,696.38c0-5.76.63-11.12,1.89-16.08,1.26-4.96,3.04-9.54,5.34-13.73,2.3-4.19,5.04-8.01,8.22-11.46,3.18-3.45,6.71-6.52,10.58-9.23,3.87-2.7,8-5.06,12.41-7.06,4.41-2,8.97-3.66,13.7-4.97,4.73-1.31,9.54-2.29,14.45-2.94,4.9-.65,9.78-.97,14.65-.97,3.84,0,7.64.2,11.38.59,3.75.39,7.38.98,10.9,1.76,3.52.78,6.9,1.75,10.16,2.9,3.25,1.15,6.31,2.48,9.17,3.99,2.86,1.51,5.5,3.2,7.92,5.07,2.42,1.87,4.54,3.89,6.37,6.08v20.44c-1.99-3.54-4.32-6.81-6.99-9.8-2.67-2.99-5.6-5.69-8.77-8.11-3.17-2.42-6.55-4.55-10.16-6.39-3.6-1.84-7.32-3.38-11.16-4.62-3.84-1.24-7.77-2.18-11.79-2.8-4.02-.62-8.03-.93-12.03-.93-5.1,0-10.12.51-15.05,1.54-4.93,1.03-9.62,2.59-14.06,4.68-4.45,2.1-8.55,4.74-12.31,7.93-3.76,3.19-7.01,6.94-9.73,11.26-2.73,4.31-4.86,9.2-6.41,14.66-1.55,5.46-2.32,11.52-2.32,18.17s.77,12.66,2.32,18.11c1.54,5.45,3.68,10.32,6.41,14.62,2.73,4.3,5.96,8.03,9.71,11.19,3.75,3.16,7.84,5.79,12.27,7.89,4.43,2.1,9.12,3.66,14.07,4.68,4.94,1.03,9.95,1.54,15.03,1.54,4.27,0,8.54-.35,12.81-1.05,4.27-.7,8.44-1.76,12.49-3.16,4.06-1.41,7.97-3.14,11.73-5.21,3.76-2.07,7.27-4.45,10.52-7.16-.16-8.44-.38-16.6-.64-24.5-.27-7.89-.59-15.28-.97-22.14h18.17c-.3,3.65-.56,7.48-.81,11.5-.24,4.02-.46,8.15-.64,12.41-.19,4.26-.34,8.61-.44,13.06-.11,4.45-.19,8.94-.24,13.49l-1.01.16v.41c-2.77,3.3-6.16,6.22-10.18,8.76-4.02,2.54-8.46,4.67-13.32,6.39-4.86,1.72-10.05,3.02-15.58,3.91-5.52.89-11.17,1.34-16.94,1.34-4.86,0-9.75-.32-14.65-.95-4.9-.64-9.71-1.61-14.43-2.92-4.71-1.31-9.27-2.97-13.66-4.97-4.39-2-8.52-4.35-12.39-7.06-3.87-2.7-7.39-5.77-10.58-9.19-3.18-3.42-5.92-7.23-8.2-11.42-2.28-4.19-4.06-8.76-5.32-13.71-1.26-4.95-1.89-10.29-1.89-16.02Z" style="fill: #000; stroke: #000; stroke-miterlimit: 10; stroke-width: .94px;"/>
      <path d="M1214.23,759.98c.32-5.89.59-12.2.81-18.92.21-6.72.38-13.65.48-20.81.11-7.15.16-14.4.16-21.76s-.06-14.61-.16-21.76c-.11-7.15-.27-14.1-.48-20.83-.22-6.73-.48-13.03-.81-18.9l-.2-3.53c9.89,9.52,19.73,18.73,29.54,27.62,9.81,8.9,19.41,17.4,28.81,25.51,9.4,8.11,18.52,15.78,27.36,23,8.84,7.22,17.23,13.91,25.19,20.08l.04-27.9c0-5.76-.03-11.51-.08-17.26-.06-5.75-.14-11.38-.26-16.89-.12-5.52-.27-10.87-.46-16.06-.19-5.19-.4-10.11-.64-14.76h13.42c-.32,5.87-.59,12.17-.81,18.92-.22,6.75-.38,13.7-.48,20.87-.11,7.17-.16,14.43-.16,21.8s.05,14.63.16,21.8c.11,7.17.27,14.12.48,20.87.21,6.75.48,13.05.81,18.92l.24,3.69c-6.55-6.41-13-12.56-19.32-18.45-6.33-5.9-12.57-11.61-18.72-17.14-6.15-5.53-12.25-10.9-18.3-16.1-6.04-5.2-12.08-10.3-18.11-15.29-6.03-4.99-12.08-9.92-18.13-14.78-6.06-4.87-12.18-9.72-18.36-14.56l-.04,27.9c0,5.76.03,11.5.08,17.22.05,5.72.14,11.33.26,16.83.12,5.5.27,10.84.46,16,.19,5.16.4,10.06.64,14.68h-13.42Z" style="fill: #000; stroke: #000; stroke-miterlimit: 10; stroke-width: .94px;"/>
    </g>
  </g>
</svg>