<?xml version="1.0" encoding="UTF-8"?>
<svg id="Layer_1" xmlns="http://www.w3.org/2000/svg" viewBox="0 0 390 807.5">
  <defs>
    <style>
      .cls-1 {
        stroke: #000;
        stroke-miterlimit: 10;
        stroke-width: .27px;
      }
    </style>
  </defs>
  <g>
    <path class="cls-1" d="M293.17,580.24H94.75c-1.18,0-2.27-.64-2.86-1.67L-7.32,404.54c-.59-1.04-.59-2.32,0-3.35l99.21-174.02c.59-1.04,1.68-1.67,2.86-1.67h198.42c1.18,0,2.27.64,2.86,1.67l99.21,174.02c.59,1.04.59,2.32,0,3.35l-99.21,174.02c-.59,1.04-1.68,1.67-2.86,1.67ZM96.66,573.54h194.61l97.3-170.67-97.3-170.67H96.66L-.64,402.87l97.3,170.67Z"/>
    <path class="cls-1" d="M234.59,638.24c-.35,0-.7-.06-1.03-.18L14.92,557.33c-1.02-.38-1.76-1.27-1.94-2.35l-40.53-232.11c-.19-1.08.21-2.18,1.03-2.89l178.11-151.38c.83-.7,1.96-.9,2.98-.53l218.63,80.73c1.02.38,1.76,1.27,1.94,2.35l40.53,232.11c.19,1.08-.21,2.18-1.03,2.89l-178.11,151.38c-.55.47-1.24.72-1.94.72ZM18.63,552.17l215.35,79.52,175.43-149.1-39.91-228.62-215.35-79.52L-21.28,323.54l39.91,228.62Z"/>
    <path class="cls-1" d="M147.32,676.45c-.64,0-1.26-.22-1.76-.65L-61.71,499.35c-.75-.64-1.11-1.64-.94-2.62L-15.94,226.71c.17-.98.84-1.8,1.77-2.14l253.99-93.56c.91-.34,1.95-.15,2.7.48l207.28,176.45c.75.64,1.11,1.64.94,2.62l-46.72,270.02c-.17.98-.84,1.8-1.77,2.14l-253.99,93.56c-.3.11-.62.17-.94.17ZM-56.97,496.11l204.85,174.39,251.01-92.47,46.17-266.85-204.85-174.39L-10.8,229.26l-46.17,266.85Z"/>
    <path class="cls-1" d="M351.07,682.39h0l-313.64-.25c-.89,0-1.71-.48-2.15-1.26L-121.75,404.95c-.45-.78-.45-1.74,0-2.52L34.86,126.74c.45-.78,1.27-1.26,2.16-1.26h0l313.63.25c.89,0,1.71.48,2.15,1.26l157.03,275.93c.44.78.44,1.74,0,2.52l-156.61,275.69c-.44.78-1.27,1.26-2.15,1.26ZM38.87,677.09l310.76.24,155.17-273.16-155.59-273.41-310.76-.24L-116.72,403.68,38.87,677.09Z"/>
    <path class="cls-1" d="M256.83,767.57c-.26,0-.52-.05-.77-.14l-339.26-125.57c-.75-.28-1.3-.94-1.43-1.74l-62.79-361.3c-.14-.8.15-1.61.76-2.13L129.81,40.97c.61-.52,1.46-.67,2.21-.39l339.26,125.57c.75.28,1.3.94,1.43,1.74l62.79,361.3c.14.8-.15,1.61-.76,2.13l-276.46,235.72c-.41.35-.92.53-1.44.53ZM-80.44,638.04l336.83,124.68,274.48-234.04-62.34-358.72L131.7,45.29l-274.48,234.03,62.34,358.72Z"/>
    <path class="cls-1" d="M195,807.76c-.37,0-.75-.1-1.08-.29l-342.39-200.91c-.67-.39-1.08-1.12-1.08-1.9V202.84c0-.78.41-1.51,1.08-1.9L193.92.03c.67-.39,1.5-.39,2.17,0l342.39,200.91c.67.39,1.08,1.12,1.08,1.9v401.82c0,.78-.41,1.51-1.08,1.9l-342.39,200.91c-.34.2-.71.29-1.08.29ZM-145.22,603.39l340.22,199.64,340.22-199.64V204.11L195,4.47-145.22,204.11v399.28Z"/>
  </g>
  <g>
    <path d="M74.47,402.34c.19-3.48.35-7.21.48-11.19.13-3.98.22-8.08.29-12.32.06-4.23.1-8.53.1-12.88s-.03-8.65-.1-12.88c-.06-4.23-.16-8.34-.29-12.32-.13-3.98-.29-7.71-.48-11.19h5.81c1.62,2.56,3.36,5.25,5.24,8.09,1.87,2.84,3.84,5.76,5.89,8.78,2.06,3.02,4.18,6.1,6.38,9.25,2.2,3.15,4.43,6.31,6.7,9.48,2.27,3.17,4.56,6.34,6.87,9.5,2.31,3.16,4.6,6.26,6.87,9.3,2.25-3.03,4.53-6.13,6.82-9.3,2.29-3.16,4.57-6.33,6.85-9.5,2.27-3.17,4.52-6.33,6.74-9.48,2.22-3.15,4.38-6.23,6.46-9.25,2.09-3.02,4.09-5.95,6.01-8.78,1.92-2.84,3.73-5.53,5.43-8.09h5.48c-.29,3.48-.52,7.21-.71,11.19-.19,3.98-.33,8.08-.43,12.32-.1,4.23-.14,8.53-.14,12.88s.05,8.65.14,12.88c.1,4.23.24,8.34.43,12.32.19,3.98.43,7.71.71,11.19h-10.74c.22-2.68.4-5.53.55-8.53.14-3,.26-6.1.35-9.3.09-3.2.14-6.45.17-9.78.02-3.32.02-6.66-.01-10.02l-.02-19.07c-2.56,3.45-5.15,6.99-7.77,10.62-2.63,3.63-5.25,7.27-7.86,10.92-2.61,3.65-5.18,7.27-7.7,10.87-2.52,3.59-4.95,7.08-7.29,10.47l-5.76,8.46c-5.51-8.28-11.14-16.45-16.89-24.53-5.75-8.08-11.58-16.08-17.49-24.02v14.59c-.02,3.48,0,6.96.02,10.45.03,3.48.08,6.89.15,10.23.07,3.34.16,6.58.27,9.72.11,3.14.25,6.12.4,8.93h-7.93Z"/>
    <path d="M187.89,402.34c.29-3.48.51-7.21.67-11.19s.27-8.08.33-12.32c.06-4.23.08-8.53.05-12.88-.03-4.35-.1-8.65-.19-12.88-.1-4.23-.22-8.34-.37-12.32-.15-3.98-.31-7.71-.49-11.19h10.74c-.29,3.48-.52,7.21-.71,11.19-.19,3.98-.33,8.08-.43,12.32s-.14,8.53-.14,12.88.05,8.65.14,12.88.24,8.34.43,12.32c.19,3.98.43,7.71.71,11.19h-10.74Z"/>
    <path d="M241.65,370.74l26.38-45.29c3.51,6.53,7,13.05,10.48,19.55,3.48,6.5,7.01,12.97,10.59,19.41,3.59,6.44,7.25,12.82,11,19.16,3.75,6.33,7.64,12.59,11.69,18.77h-11.33c-1.46-3.02-3.15-6.36-5.08-10.03-1.93-3.67-4.05-7.6-6.37-11.8h-46.83c-2.27,3.96-4.42,7.78-6.46,11.44-2.04,3.67-3.92,7.13-5.65,10.39h-7.93c1.48-2.28,3.01-4.68,4.6-7.19,1.59-2.51,3.21-5.1,4.86-7.78,1.65-2.68,3.32-5.41,5.01-8.21,1.69-2.8,3.38-5.61,5.06-8.43ZM286.32,375.7l-19.69-36.73-21.67,36.73h41.35Z"/>
  </g>
  <g>
    <path d="M100.14,432.61c1.46,0,2.81.22,4.06.66,1.25.44,2.39,1.06,3.43,1.86,1.04.8,1.96,1.77,2.76,2.9.8,1.13,1.48,2.39,2.04,3.78.56,1.39.99,2.88,1.28,4.49.3,1.61.46,3.29.48,5.04.03,1.72-.1,3.38-.37,4.99-.27,1.61-.68,3.13-1.22,4.56-.54,1.42-1.21,2.73-2.02,3.91-.81,1.19-1.73,2.2-2.78,3.05-1.05.85-2.21,1.51-3.5,1.98-1.29.47-2.68.71-4.17.71h-24.4c.07-1.24.13-2.55.18-3.91.05-1.37.1-2.78.14-4.24.04-1.46.07-2.94.09-4.46.02-1.52.04-3.05.04-4.59,0-1.84,0-3.67-.01-5.5-.02-1.83-.04-3.63-.08-5.39-.04-1.76-.08-3.48-.14-5.13-.06-1.66-.13-3.22-.21-4.71h19.31s5.09.01,5.09.01ZM100.04,467.92c1.22,0,2.31-.22,3.26-.66.95-.44,1.78-1.04,2.49-1.8.72-.77,1.32-1.67,1.81-2.72.49-1.05.89-2.18,1.2-3.41.31-1.22.53-2.51.66-3.86.14-1.35.2-2.71.19-4.08,0-1.35-.07-2.68-.21-4.01-.14-1.32-.36-2.59-.67-3.78-.31-1.2-.71-2.31-1.2-3.33-.49-1.02-1.1-1.91-1.81-2.65s-1.55-1.33-2.49-1.75c-.95-.42-2.03-.64-3.24-.64h-19.41s-.01,32.7-.01,32.7h19.44Z"/>
    <path d="M156.47,432.63v6.27c-.93-.85-1.94-1.52-3-2-1.07-.49-2.17-.85-3.31-1.1s-2.31-.4-3.49-.46c-1.19-.06-2.36-.09-3.53-.09-.45,0-.89,0-1.33,0-.44,0-.88,0-1.32,0h-10.73s-3.16-.01-3.16-.01v13.55h15.07c1.58,0,2.96-.06,4.13-.19,1.17-.13,2.18-.34,3.01-.62.83-.29,1.5-.66,2.02-1.13.52-.47.91-1.03,1.18-1.7v9.91c-.26-.6-.64-1.13-1.16-1.58-.52-.46-1.19-.84-2.03-1.14-.84-.3-1.84-.53-3.02-.69-1.18-.15-2.56-.23-4.14-.23h-15.07v16.53h13.45c2.3-.02,4.41-.09,6.34-.22,1.93-.13,3.66-.34,5.2-.63,1.54-.29,2.88-.66,4.02-1.12,1.14-.46,2.08-1.02,2.8-1.67l-1.49,6.27h-10.2c-1.56,0-3.08,0-4.55,0-1.48,0-2.95,0-4.43,0h-16c.1-1.81.18-3.76.25-5.83.07-2.07.12-4.21.15-6.42.03-2.21.05-4.44.05-6.71s-.02-4.5-.05-6.71c-.03-2.21-.08-4.34-.15-6.42-.07-2.07-.15-4.02-.25-5.83h34.76Z"/>
    <path d="M164.98,442.2c-.03-.92.09-1.84.38-2.76.29-.92.73-1.79,1.33-2.63.6-.84,1.35-1.63,2.25-2.37.9-.74,1.95-1.39,3.14-1.95,1.2-.56,2.53-1.02,4-1.37,1.47-.35,3.08-.57,4.83-.66.54-.03,1.06-.04,1.58-.04,1.8,0,3.53.14,5.18.42,1.65.28,3.21.67,4.68,1.17,1.47.5,2.85,1.11,4.14,1.82,1.29.71,2.46,1.5,3.53,2.38l-.02,6.63c-1.27-1.71-2.59-3.18-3.94-4.43-1.35-1.25-2.76-2.28-4.22-3.09-1.46-.81-2.98-1.42-4.56-1.81-1.58-.39-3.24-.59-4.97-.59-.41,0-.82.01-1.24.04-1.21.06-2.34.2-3.39.43-1.05.23-2.02.52-2.88.87-.87.35-1.64.76-2.32,1.22-.68.46-1.25.96-1.71,1.49-.46.53-.81,1.09-1.04,1.67-.23.58-.34,1.17-.32,1.76.02.87.21,1.67.57,2.38.36.71.83,1.35,1.44,1.91.6.56,1.32,1.05,2.14,1.47.82.42,1.72.76,2.69,1.03.97.27,1.99.47,3.06.61,1.07.13,2.17.2,3.27.2h.41c.13,0,.27,0,.41-.01.17,0,.35-.01.53-.01h.53c1.39,0,2.77.08,4.15.25,1.38.17,2.7.43,3.97.8,1.27.37,2.45.84,3.55,1.42,1.1.58,2.06,1.28,2.89,2.1.83.82,1.49,1.77,2,2.85.5,1.08.79,2.31.87,3.67.05.96-.06,1.91-.34,2.87-.28.96-.71,1.88-1.31,2.75-.6.88-1.34,1.7-2.25,2.47-.9.77-1.95,1.45-3.14,2.04-1.2.59-2.53,1.06-4.02,1.44-1.48.37-3.1.59-4.86.67-.52.03-1.05.04-1.59.04-1.25,0-2.5-.06-3.76-.18-1.26-.12-2.5-.3-3.71-.53-1.22-.23-2.41-.52-3.57-.86-1.16-.34-2.26-.72-3.3-1.14s-2.02-.89-2.92-1.4c-.91-.51-1.71-1.05-2.43-1.64l.03-6.63c1.27,1.7,2.69,3.17,4.24,4.41,1.55,1.24,3.19,2.26,4.91,3.07,1.72.81,3.48,1.41,5.28,1.8s3.6.59,5.39.59c.44,0,.87-.01,1.29-.04,1.21-.07,2.34-.22,3.39-.46,1.05-.24,2.01-.54,2.88-.91.87-.37,1.64-.8,2.32-1.29.68-.49,1.25-1.01,1.71-1.57.46-.56.8-1.15,1.04-1.77.23-.62.33-1.24.31-1.86-.03-.97-.23-1.83-.6-2.6-.37-.77-.87-1.45-1.5-2.04-.63-.59-1.38-1.1-2.25-1.52-.86-.42-1.81-.77-2.84-1.04-1.03-.27-2.13-.47-3.3-.59-1.17-.13-2.37-.19-3.6-.19-1.03,0-2.07-.04-3.14-.12-1.07-.08-2.12-.21-3.16-.39-1.04-.18-2.06-.41-3.05-.7-.99-.29-1.92-.64-2.8-1.05-.88-.41-1.69-.89-2.43-1.44-.74-.55-1.39-1.17-1.93-1.87-.55-.7-.99-1.48-1.31-2.34-.32-.86-.5-1.81-.55-2.85Z"/>
    <path d="M209.39,470.54c.15-1.81.26-3.76.35-5.83.08-2.07.14-4.21.17-6.42.03-2.21.04-4.44.03-6.71-.02-2.27-.05-4.5-.1-6.71s-.11-4.34-.19-6.42c-.08-2.07-.16-4.02-.25-5.83h5.59c-.15,1.81-.27,3.76-.37,5.83-.1,2.07-.17,4.21-.22,6.42-.05,2.21-.07,4.44-.07,6.71s.03,4.5.07,6.71c.05,2.21.12,4.34.22,6.42.1,2.07.22,4.02.37,5.83h-5.59Z"/>
    <path d="M222.5,450.97c0-1.77.19-3.42.58-4.95s.94-2.94,1.64-4.23c.71-1.29,1.55-2.47,2.53-3.53.98-1.06,2.07-2.01,3.26-2.84,1.19-.83,2.46-1.56,3.82-2.17s2.76-1.13,4.22-1.53c1.46-.4,2.94-.71,4.45-.91,1.51-.2,3.01-.3,4.51-.3,1.18,0,2.35.06,3.5.18,1.15.12,2.27.3,3.36.54,1.08.24,2.13.54,3.13.89,1,.35,1.94.76,2.82,1.23.88.47,1.69.99,2.44,1.56.74.57,1.4,1.2,1.96,1.87v6.29c-.61-1.09-1.33-2.09-2.15-3.01-.82-.92-1.72-1.75-2.7-2.5-.98-.75-2.02-1.4-3.13-1.97-1.11-.57-2.25-1.04-3.44-1.42-1.18-.38-2.39-.67-3.63-.86-1.24-.19-2.47-.29-3.7-.29-1.57,0-3.12.16-4.63.47-1.52.32-2.96.8-4.33,1.44-1.37.64-2.63,1.46-3.79,2.44-1.16.98-2.16,2.14-3,3.46-.84,1.33-1.5,2.83-1.97,4.51-.48,1.68-.71,3.55-.71,5.59s.24,3.9.71,5.57c.48,1.68,1.13,3.18,1.97,4.5.84,1.32,1.84,2.47,2.99,3.45,1.15.97,2.41,1.78,3.78,2.43,1.36.64,2.81,1.13,4.33,1.44,1.52.32,3.06.47,4.63.47,1.31,0,2.63-.11,3.94-.33,1.31-.22,2.6-.54,3.85-.97,1.25-.43,2.45-.97,3.61-1.6,1.16-.64,2.24-1.37,3.24-2.2-.05-2.6-.12-5.11-.2-7.54-.08-2.43-.18-4.7-.3-6.82h5.59c-.09,1.12-.17,2.3-.25,3.54-.07,1.24-.14,2.51-.2,3.82-.06,1.31-.1,2.65-.14,4.02-.03,1.37-.06,2.75-.07,4.15l-.31.05v.12c-.85,1.02-1.9,1.92-3.13,2.7-1.24.78-2.6,1.44-4.1,1.97-1.5.53-3.1.93-4.79,1.21-1.7.27-3.44.41-5.22.41-1.5,0-3-.1-4.51-.29-1.51-.2-2.99-.5-4.44-.9-1.45-.4-2.85-.91-4.21-1.53s-2.62-1.34-3.81-2.17c-1.19-.83-2.28-1.78-3.26-2.83-.98-1.05-1.82-2.22-2.52-3.51-.7-1.29-1.25-2.7-1.64-4.22s-.58-3.17-.58-4.93Z"/>
    <path d="M273.26,470.54c.1-1.81.18-3.76.25-5.82.07-2.07.12-4.2.15-6.41.03-2.2.05-4.43.05-6.7s-.02-4.5-.05-6.7c-.03-2.2-.08-4.34-.15-6.41-.07-2.07-.15-4.01-.25-5.82l-.06-1.09c3.04,2.93,6.07,5.76,9.09,8.5,3.02,2.74,5.97,5.36,8.87,7.85,2.89,2.5,5.7,4.86,8.42,7.08,2.72,2.22,5.31,4.28,7.75,6.18v-8.59c.01-1.77,0-3.54-.01-5.31-.02-1.77-.04-3.5-.08-5.2-.04-1.7-.08-3.35-.14-4.94-.06-1.6-.12-3.11-.2-4.54h4.13c-.1,1.81-.18,3.75-.25,5.82s-.12,4.22-.15,6.42c-.03,2.21-.05,4.44-.05,6.71s.02,4.5.05,6.71c.03,2.21.08,4.35.15,6.42s.15,4.02.25,5.82l.07,1.14c-2.02-1.97-4-3.87-5.95-5.68-1.95-1.81-3.87-3.57-5.76-5.27-1.89-1.7-3.77-3.35-5.63-4.96-1.86-1.6-3.72-3.17-5.58-4.71-1.86-1.54-3.72-3.05-5.58-4.55-1.87-1.5-3.75-2.99-5.65-4.48v8.59c-.01,1.77,0,3.54.01,5.3.02,1.76.04,3.49.08,5.18.04,1.69.08,3.34.14,4.92.06,1.59.12,3.1.2,4.52h-4.13Z"/>
  </g>
</svg>