<?xml version="1.0" encoding="UTF-8"?>
<svg id="Layer_1" data-name="Layer 1" xmlns="http://www.w3.org/2000/svg" viewBox="0 0 1920 1081.5">
  <path d="M1947.56-44.26l-982.77-576.68c-2.95-1.72-6.62-1.72-9.59,0L-27.57-44.26c-2.93,1.72-4.75,4.91-4.75,8.33v1153.35c0,3.42,1.82,6.61,4.75,8.33l982.77,576.68c1.46.85,3.12,1.3,4.79,1.3s3.34-.45,4.8-1.31l982.76-576.68c2.93-1.72,4.75-4.91,4.75-8.33V-35.93c0-3.42-1.82-6.61-4.75-8.33ZM1933.22,857.6l-171.85-988.83,171.85,100.84v887.99ZM-13.22,257.03l165.44,951.92-165.44-97.08V257.03ZM1234.38,51.66l277.38,486.55-277.38,486.55h-554.72l-277.38-486.55L679.66,51.66h554.72ZM1236.55,1050.67l-165.33,140.53-380.57-140.53h545.9ZM1256.71,38.96l201.2,74.29,70.11,401.62L1256.71,38.96ZM679.38,25.76l164.02-139.41L1220.96,25.76h-541.57ZM651.19,49.72l-271.11,475.56-37.27-213.46L651.19,49.72ZM657.97,1038.6l-201.25-74.31-70.13-401.73,271.39,476.04ZM1261.07,1029.83l273.19-479.22,37.55,215.1-310.75,264.12ZM854.67-135.34l234.41-86.35,358.7,305.36-593.11-219.01ZM329.09,291.76l43.15-249.39,441.71-162.71-484.86,412.1ZM322.03,332.55l111.05,636.05-192.71-164.06,81.66-472ZM1064.44,1214.55l-239.03,88.05-365.76-311.38,604.8,223.33ZM1586.07,785.32l-43.81,253.2-448.47,165.21,492.28-418.41ZM1482.25,113.02l191.88,163.35-81.31,469.95-110.57-633.3ZM1696.29,279.94l149.12,262.04-279.63,492.25,130.51-754.29ZM1102.72-239.71l297.99.23,279.75,491.58-577.73-491.82ZM364.08,21.26l148.51-261.43,560,.44L364.08,21.26ZM348.31,49.02l-130.31,753.19-148.91-261.66L348.31,49.02ZM813.67,1322.23l-299.88-.23-281.53-494.72,581.41,494.95ZM1551.59,1059.21l-149.67,263.48-564.39-.44,714.06-263.04ZM1861.14,556.79l59.31,341.26-490.97,418.62,431.66-759.89ZM1420.69-246.81l321.47,118.99,111.57,641.96-433.04-760.95ZM517.41-261.33l261.56-223.01,604.34,223.69-865.9-.68ZM484.53-233.28L53.3,525.84-5.95,184.91,484.53-233.28ZM494.13,1329.9l-321.78-119.11L60.66,568.2l433.47,761.7ZM1397.61,1343.85l-262.08,223.46-605.55-224.14,867.63.68ZM789.51-501.42l170.49-100.04,753.08,441.9-923.57-341.85ZM-13.22,165.33V-30.39l736.2-431.99L-13.22,165.33ZM1126.82,1585.06l-166.82,97.89-736.86-432.38,903.68,334.5ZM1933.22,912.94v198.93l-748.29,439.09,748.29-638.02Z" style="fill: #000; stroke-width: 0px;"/>
</svg>