<?xml version="1.0" encoding="UTF-8"?>
<svg id="Camada_6" data-name="Camada 6" xmlns="http://www.w3.org/2000/svg" viewBox="0 0 182.15 98.04">
  <path d="M81.76,24.85L41.51,1.23c-.2-.12-.45-.12-.65,0L.62,24.85c-.2.12-.32.33-.32.56v47.23c0,.23.12.45.32.56l40.24,23.61c.1.06.21.09.33.09s.23-.03.33-.09l40.24-23.61c.2-.12.32-.33.32-.56V25.41c0-.23-.12-.45-.32-.56ZM1.6,40.38l6.17,35.5-6.17-3.62v-31.88ZM80.78,59.02l-6.43-37.01,6.43,3.77v33.24ZM17.57,47.64l-1.38-7.89,11.4-9.69-10.03,17.59ZM54.46,67.91l10.11-17.74,1.39,7.96-11.5,9.78ZM29.86,29.25h22.42l11.21,19.67-11.21,19.67h-22.42l-11.21-19.67,11.21-19.67ZM51.81,70.16l-6.12,5.2-14.09-5.2h20.22ZM53.91,28.96l7.44,2.75,2.59,14.85-10.03-17.6ZM50.44,27.68h-20.04l6.07-5.16,13.97,5.16ZM28.25,68.92l-7.44-2.75-2.59-14.86,10.04,17.6ZM66.45,59.69l-1.65,9.52-16.87,6.21,18.52-15.74ZM67.1,55.94l-4.15-23.78,7.2,6.13-3.05,17.64ZM37.62,21.34l8.8-3.24,13.47,11.47-22.27-8.23ZM15.73,38.17l1.62-9.37,16.59-6.11-18.21,15.48ZM15.07,41.99l4.17,23.89-7.24-6.16,3.07-17.73ZM44.72,76.61l-8.99,3.31-13.76-11.71,22.75,8.4ZM71.47,39.09l5.68,9.98-10.65,18.75,4.97-28.73ZM64.84,70.73l-5.71,10.05-21.52-.02,27.23-10.03ZM47.73,17.32h11.35s10.66,18.74,10.66,18.74l-22.01-18.74ZM44.36,17.32l-27,9.95,5.66-9.96,21.34.02ZM15.64,30.29l-4.96,28.68-5.67-9.96,10.63-18.72ZM34.5,80.76h-11.43s-10.73-18.87-10.73-18.87l22.16,18.87ZM61.35,79.65l16.6-29.22,2.28,13.12-18.88,16.1ZM60.62,17.26l12.36,4.58,4.29,24.69-16.65-29.27ZM23.76,15.92l10.07-8.58,23.26,8.61-33.32-.03ZM4.19,47.66l-2.28-13.11,18.86-16.08L4.19,47.66ZM21.54,80.85l-12.38-4.58-4.3-24.72,16.67,29.3ZM58.41,82.16l-10.09,8.6-23.31-8.63,33.39.03ZM80.78,64.82v7.44l-27.99,16.43,27.99-23.87ZM34.8,6.3l6.38-3.75,28.19,16.54L34.8,6.3ZM29.1,9.64L1.6,33.09v-7.31L29.1,9.64ZM47.42,91.83l-6.23,3.66-27.53-16.16,33.77,12.5Z" style="fill: #000; stroke-width: 0px;"/>
  <g>
    <g>
      <path d="M101.12,49.43c.06-1.18.12-2.44.16-3.79.04-1.35.08-2.74.1-4.17s.03-2.89.03-4.36-.01-2.93-.03-4.36c-.02-1.43-.05-2.82-.1-4.17-.04-1.35-.1-2.61-.16-3.79h1.97c.55.87,1.14,1.78,1.77,2.74.63.96,1.3,1.95,1.99,2.97.7,1.02,1.42,2.07,2.16,3.13.74,1.07,1.5,2.13,2.27,3.21.77,1.07,1.54,2.15,2.33,3.22.78,1.07,1.56,2.12,2.33,3.15.76-1.03,1.53-2.08,2.31-3.15.78-1.07,1.55-2.14,2.32-3.22.77-1.07,1.53-2.14,2.28-3.21.75-1.07,1.48-2.11,2.19-3.13.71-1.02,1.38-2.01,2.04-2.97.65-.96,1.26-1.87,1.84-2.74h1.85c-.1,1.18-.18,2.44-.24,3.79-.06,1.35-.11,2.74-.15,4.17-.03,1.43-.05,2.89-.05,4.36s.02,2.93.05,4.36.08,2.82.15,4.17c.06,1.35.15,2.61.24,3.79h-3.63c.08-.91.14-1.87.19-2.89.05-1.02.09-2.07.12-3.15.03-1.08.05-2.18.06-3.31,0-1.12,0-2.26,0-3.39v-6.46c-.87,1.17-1.75,2.37-2.64,3.59-.89,1.23-1.78,2.46-2.66,3.7-.88,1.24-1.75,2.46-2.61,3.68-.85,1.22-1.68,2.4-2.47,3.54l-1.95,2.86c-1.86-2.8-3.77-5.57-5.72-8.3-1.95-2.73-3.92-5.44-5.92-8.13v4.94c0,1.18,0,2.36,0,3.54.01,1.18.03,2.33.05,3.46.02,1.13.06,2.23.09,3.29.04,1.06.08,2.07.14,3.02h-2.68Z" style="fill: #000; stroke-width: 0px;"/>
      <path d="M139.52,49.43c.1-1.18.17-2.44.23-3.79.05-1.35.09-2.74.11-4.17.02-1.43.03-2.89.02-4.36-.01-1.47-.03-2.93-.06-4.36-.03-1.43-.07-2.82-.12-4.17-.05-1.35-.11-2.61-.17-3.79h3.63c-.1,1.18-.18,2.44-.24,3.79-.06,1.35-.11,2.74-.15,4.17-.03,1.43-.05,2.89-.05,4.36s.02,2.93.05,4.36c.03,1.43.08,2.82.15,4.17.06,1.35.15,2.61.24,3.79h-3.63Z" style="fill: #000; stroke-width: 0px;"/>
      <path d="M157.72,38.73l8.93-15.33c1.19,2.21,2.37,4.42,3.55,6.62,1.18,2.2,2.37,4.39,3.59,6.57,1.21,2.18,2.46,4.34,3.72,6.49,1.27,2.14,2.59,4.26,3.96,6.36h-3.84c-.49-1.02-1.07-2.15-1.72-3.39-.65-1.24-1.37-2.57-2.16-4h-15.85c-.77,1.34-1.5,2.63-2.19,3.87-.69,1.24-1.33,2.41-1.91,3.52h-2.68c.5-.77,1.02-1.58,1.56-2.43.54-.85,1.09-1.73,1.64-2.63.56-.91,1.12-1.83,1.7-2.78.57-.95,1.14-1.9,1.71-2.86ZM172.84,40.41l-6.67-12.44-7.33,12.44h14Z" style="fill: #000; stroke-width: 0px;"/>
    </g>
    <g>
      <path d="M109.83,59.77c.49,0,.95.07,1.37.22s.81.36,1.16.63c.35.27.66.6.93.98.27.38.5.81.69,1.28.19.47.33.98.43,1.52.1.54.16,1.11.16,1.71,0,.58-.03,1.14-.13,1.69-.09.55-.23,1.06-.41,1.54s-.41.92-.68,1.33c-.27.4-.59.75-.94,1.03-.35.29-.75.51-1.18.67-.44.16-.91.24-1.41.24h-8.26c.02-.42.04-.86.06-1.33.02-.46.03-.94.05-1.43s.02-1,.03-1.51c0-.51.01-1.03.01-1.55,0-.62,0-1.24,0-1.86,0-.62-.01-1.23-.03-1.83-.01-.6-.03-1.18-.05-1.74-.02-.56-.04-1.09-.07-1.59h6.54s1.72,0,1.72,0ZM109.8,71.73c.41,0,.78-.07,1.1-.22.32-.15.6-.35.84-.61.24-.26.45-.57.61-.92.17-.35.3-.74.41-1.15.1-.41.18-.85.22-1.31s.07-.92.07-1.38c0-.46-.02-.91-.07-1.36s-.12-.87-.23-1.28c-.1-.41-.24-.78-.41-1.13-.17-.35-.37-.65-.61-.9-.24-.25-.52-.45-.84-.59-.32-.14-.69-.22-1.1-.22h-6.57s0,11.07,0,11.07h6.58Z" style="fill: #000; stroke-width: 0px;"/>
      <path d="M128.9,59.78v2.12c-.32-.29-.66-.51-1.02-.68-.36-.16-.73-.29-1.12-.37s-.78-.14-1.18-.16-.8-.03-1.19-.03c-.15,0-.3,0-.45,0-.15,0-.3,0-.45,0h-3.63s-1.07,0-1.07,0v4.59h5.1c.53,0,1-.02,1.4-.07.4-.04.74-.11,1.02-.21.28-.1.51-.22.68-.38s.31-.35.4-.57v3.36c-.09-.2-.22-.38-.39-.54-.17-.15-.4-.28-.69-.39-.28-.1-.62-.18-1.02-.23-.4-.05-.87-.08-1.4-.08h-5.1v5.6h4.55c.78,0,1.49-.03,2.15-.08.65-.05,1.24-.12,1.76-.21.52-.1.97-.22,1.36-.38.39-.15.7-.34.95-.57l-.5,2.12h-3.45c-.53,0-1.04,0-1.54,0-.5,0-1,0-1.5,0h-5.42c.03-.61.06-1.27.08-1.97.02-.7.04-1.43.05-2.17.01-.75.02-1.5.02-2.27s0-1.53-.02-2.27c-.01-.75-.03-1.47-.05-2.17-.02-.7-.05-1.36-.08-1.97h11.77Z" style="fill: #000; stroke-width: 0px;"/>
      <path d="M131.78,63.02c-.01-.31.03-.62.13-.93.1-.31.25-.61.45-.89.2-.28.46-.55.76-.8s.66-.47,1.06-.66c.4-.19.86-.35,1.35-.46.5-.12,1.04-.19,1.63-.22.18,0,.36-.01.53-.01.61,0,1.19.05,1.75.14.56.09,1.09.23,1.59.4s.97.38,1.4.62c.44.24.83.51,1.19.81v2.24c-.44-.58-.88-1.08-1.34-1.5-.46-.42-.93-.77-1.43-1.05-.49-.27-1.01-.48-1.55-.61s-1.1-.2-1.68-.2c-.14,0-.28,0-.42.01-.41.02-.79.07-1.15.15-.36.08-.68.18-.98.3s-.56.26-.79.41c-.23.16-.42.32-.58.51-.16.18-.27.37-.35.57-.08.2-.11.4-.11.6,0,.3.07.56.19.81.12.24.28.46.49.65.2.19.45.36.72.5s.58.26.91.35c.33.09.67.16,1.04.21.36.05.73.07,1.11.07h.14s.09,0,.14,0c.06,0,.12,0,.18,0h.18c.47,0,.94.03,1.4.08.47.06.91.15,1.34.27.43.12.83.28,1.2.48.37.2.7.43.98.71.28.28.51.6.68.97s.27.78.29,1.24c.02.32-.02.65-.12.97-.09.32-.24.63-.44.93s-.45.58-.76.84c-.31.26-.66.49-1.06.69-.4.2-.86.36-1.36.49-.5.13-1.05.2-1.64.23-.18,0-.36.01-.54.01-.42,0-.85-.02-1.27-.06-.43-.04-.84-.1-1.26-.18-.41-.08-.82-.18-1.21-.29-.39-.11-.76-.24-1.12-.39-.35-.14-.68-.3-.99-.47-.31-.17-.58-.36-.82-.55v-2.24c.44.57.92,1.07,1.44,1.49s1.08.77,1.66,1.04c.58.27,1.18.48,1.79.61.61.13,1.22.2,1.82.2.15,0,.29,0,.44-.01.41-.02.79-.07,1.15-.15s.68-.18.97-.31c.29-.13.56-.27.79-.44.23-.16.42-.34.58-.53.16-.19.27-.39.35-.6.08-.21.11-.42.11-.63-.01-.33-.08-.62-.2-.88-.12-.26-.29-.49-.51-.69-.21-.2-.47-.37-.76-.52s-.61-.26-.96-.35-.72-.16-1.12-.2-.8-.06-1.22-.06c-.35,0-.7-.01-1.06-.04-.36-.03-.72-.07-1.07-.13-.35-.06-.7-.14-1.03-.24-.33-.1-.65-.22-.95-.35-.3-.14-.57-.3-.82-.49-.25-.19-.47-.4-.66-.63-.19-.24-.33-.5-.44-.79-.11-.29-.17-.61-.18-.96Z" style="fill: #000; stroke-width: 0px;"/>
      <path d="M146.82,72.61c.05-.61.09-1.27.12-1.97.03-.7.05-1.43.06-2.17.01-.75.01-1.5,0-2.27,0-.77-.02-1.53-.03-2.27-.02-.75-.04-1.47-.07-2.17-.03-.7-.06-1.36-.09-1.97h1.89c-.05.61-.09,1.27-.13,1.97-.03.7-.06,1.43-.08,2.17-.02.75-.03,1.5-.03,2.27s0,1.53.03,2.27.04,1.47.08,2.17c.03.7.08,1.36.13,1.97h-1.89Z" style="fill: #000; stroke-width: 0px;"/>
      <path d="M151.26,65.99c0-.6.07-1.16.2-1.68.13-.52.32-.99.56-1.43.24-.44.52-.83.86-1.19.33-.36.7-.68,1.1-.96.4-.28.83-.53,1.29-.74.46-.21.94-.38,1.43-.52.49-.14.99-.24,1.51-.31.51-.07,1.02-.1,1.53-.1.4,0,.8.02,1.19.06.39.04.77.1,1.14.18s.72.18,1.06.3.66.26.96.42c.3.16.57.33.83.53s.47.41.66.63v2.13c-.21-.37-.45-.71-.73-1.02-.28-.31-.58-.59-.91-.85-.33-.25-.68-.47-1.06-.67-.38-.19-.76-.35-1.16-.48s-.81-.23-1.23-.29c-.42-.06-.84-.1-1.25-.1-.53,0-1.05.05-1.57.16s-1,.27-1.47.49c-.46.22-.89.49-1.28.83-.39.33-.73.72-1.01,1.17-.28.45-.51.96-.67,1.53-.16.57-.24,1.2-.24,1.89s.08,1.32.24,1.89c.16.57.38,1.08.67,1.52s.62.84,1.01,1.17c.39.33.82.6,1.28.82.46.22.95.38,1.47.49.52.11,1.04.16,1.57.16.45,0,.89-.04,1.34-.11.45-.07.88-.18,1.3-.33.42-.15.83-.33,1.22-.54.39-.22.76-.46,1.1-.75-.02-.88-.04-1.73-.07-2.55-.03-.82-.06-1.59-.1-2.31h1.89c-.03.38-.06.78-.08,1.2-.03.42-.05.85-.07,1.29s-.04.9-.05,1.36c-.01.46-.02.93-.03,1.41l-.11.02v.04c-.29.34-.64.65-1.06.91-.42.26-.88.49-1.39.67-.51.18-1.05.31-1.62.41-.58.09-1.16.14-1.77.14-.51,0-1.02-.03-1.53-.1-.51-.07-1.01-.17-1.5-.3-.49-.14-.97-.31-1.42-.52-.46-.21-.89-.45-1.29-.74-.4-.28-.77-.6-1.1-.96-.33-.36-.62-.75-.85-1.19-.24-.44-.42-.91-.55-1.43-.13-.52-.2-1.07-.2-1.67Z" style="fill: #000; stroke-width: 0px;"/>
      <path d="M168.44,72.61c.03-.61.06-1.27.08-1.97.02-.7.04-1.42.05-2.17.01-.75.02-1.5.02-2.27s0-1.52-.02-2.27c-.01-.75-.03-1.47-.05-2.17-.02-.7-.05-1.36-.08-1.97l-.02-.37c1.03.99,2.06,1.95,3.08,2.88,1.02.93,2.02,1.81,3,2.66.98.85,1.93,1.64,2.85,2.4.92.75,1.8,1.45,2.62,2.09v-2.91c0-.6,0-1.2,0-1.8,0-.6-.01-1.19-.03-1.76-.01-.57-.03-1.13-.05-1.67s-.04-1.05-.07-1.54h1.4c-.03.61-.06,1.27-.08,1.97-.02.7-.04,1.43-.05,2.17-.01.75-.02,1.5-.02,2.27s0,1.53.02,2.27c.01.75.03,1.47.05,2.17.02.7.05,1.36.08,1.97l.03.38c-.68-.67-1.35-1.31-2.01-1.92-.66-.61-1.31-1.21-1.95-1.79-.64-.58-1.28-1.14-1.91-1.68-.63-.54-1.26-1.07-1.89-1.59-.63-.52-1.26-1.03-1.89-1.54-.63-.51-1.27-1.01-1.91-1.52v2.91c0,.6,0,1.2,0,1.79,0,.6.01,1.18.03,1.75.01.57.03,1.13.05,1.67.02.54.04,1.05.07,1.53h-1.4Z" style="fill: #000; stroke-width: 0px;"/>
    </g>
  </g>
</svg>